<svg width="140" height="32" viewBox="0 0 140 32" fill="none" xmlns="http://www.w3.org/2000/svg">
  <path d="M0 0V2.8212H8.27128L0 11.0983V15.1941L15.1927 0H0Z" fill="currentColor"/>
  <path d="M20.3791 0L0 20.3826V24.7675L24.7606 0H20.3791Z" fill="currentColor"/>
  <path d="M0 29.7959V32H2.2064L31.9999 2.19634V0H29.7857L0 29.7959Z" fill="currentColor"/>
  <path d="M7.22998 31.9995L32 7.2274V11.6076L11.6146 31.9995H7.22998Z" fill="currentColor"/>
  <path d="M16.8008 31.9992L31.9998 16.7989V20.8885L23.7191 29.1765L31.9998 29.1702L31.9872 31.9992H16.8008Z"
        fill="currentColor"/>
  <path d="M48 25.2171V23.6231L55.4949 14.5216H48.348V12.0534H59.3494V13.9046L52.0151 22.8775H59.5635V25.2171H48Z"
        fill="currentColor"/>
  <path
    d="M68.6645 25.5C66.2019 25.5 64.3817 24.9087 63.2307 23.726C62.0797 22.5433 61.5176 20.8464 61.5176 18.6353C61.5176 16.4243 62.1065 14.7274 63.2575 13.5447C64.4085 12.362 66.2286 11.7707 68.6645 11.7707C71.1271 11.7707 72.9473 12.362 74.0983 13.5447C75.2493 14.7274 75.8382 16.4243 75.8382 18.6353C75.8382 20.8464 75.2761 22.5433 74.1251 23.726C72.9473 24.9087 71.1271 25.5 68.6645 25.5ZM68.6645 22.929C70.1099 22.929 71.1271 22.5947 71.7427 21.9263C72.3584 21.2578 72.6528 20.1523 72.6528 18.6353C72.6528 17.1184 72.3584 16.0129 71.7427 15.3701C71.1271 14.7017 70.1099 14.3674 68.6645 14.3674C67.2458 14.3674 66.2286 14.7017 65.613 15.3701C64.9973 16.0386 64.7029 17.1184 64.7029 18.6353C64.7029 20.1523 64.9973 21.2578 65.613 21.9263C66.2019 22.5947 67.219 22.929 68.6645 22.929Z"
    fill="currentColor"/>
  <path
    d="M78.8896 25.2172V12.0535H81.7805L81.9144 13.4418C82.53 12.9791 83.2795 12.5934 84.1361 12.2592C84.9926 11.9249 85.9563 11.7707 86.9734 11.7707C88.7401 11.7707 90.0249 12.1563 90.8547 12.9534C91.6577 13.7504 92.0593 14.9845 92.0593 16.6814V25.2172H88.9275V16.8356C88.9275 15.8072 88.7133 15.113 88.285 14.7017C87.8568 14.2903 87.027 14.0846 85.8492 14.0846C85.1265 14.0846 84.4305 14.2132 83.7613 14.496C83.0654 14.7788 82.5033 15.1387 82.0482 15.5758V25.2172H78.8896Z"
    fill="currentColor"/>
  <path
    d="M100.973 25.5C99.7418 25.5 98.6444 25.2943 97.7075 24.8829C96.7706 24.4715 96.0212 23.8031 95.5126 22.8518C95.004 21.9005 94.7363 20.6407 94.7363 19.0467C94.7363 17.4783 95.004 16.1414 95.5661 15.0616C96.1282 13.9817 96.9045 13.159 97.8949 12.5934C98.8853 12.0277 100.01 11.7706 101.268 11.7706C102.097 11.7706 102.82 11.8735 103.489 12.0534C104.132 12.2334 104.747 12.5162 105.363 12.9019V6.5H108.522V25.2171H105.845L105.631 23.9059C105.015 24.4458 104.346 24.8315 103.596 25.0886C102.847 25.3714 101.964 25.5 100.973 25.5ZM101.803 23.2117C103.222 23.2117 104.373 22.7489 105.336 21.8234V15.2415C104.426 14.4702 103.302 14.0846 101.937 14.0846C100.598 14.0846 99.608 14.5216 98.9388 15.3701C98.2696 16.2185 97.9217 17.4526 97.9217 19.0981C97.9217 20.6664 98.2429 21.7462 98.8585 22.3376C99.4742 22.9289 100.465 23.2117 101.803 23.2117Z"
    fill="currentColor"/>
  <path
    d="M116.257 25.4999C115.4 25.4999 114.597 25.3457 113.848 25.0629C113.098 24.7543 112.51 24.3173 112.081 23.7259C111.626 23.1346 111.412 22.389 111.412 21.4891C111.412 20.2293 111.867 19.2266 112.75 18.4553C113.634 17.684 115.026 17.2983 116.899 17.2983H121.289V16.707C121.289 16.09 121.182 15.5757 120.995 15.2158C120.781 14.8559 120.433 14.573 119.897 14.4188C119.362 14.2645 118.586 14.1617 117.569 14.1617C115.963 14.1617 114.437 14.3931 113.018 14.8559V12.6191C113.634 12.3877 114.383 12.182 115.267 12.0277C116.15 11.8735 117.114 11.7963 118.131 11.7963C120.138 11.7963 121.664 12.182 122.708 12.9533C123.752 13.7246 124.287 15.0101 124.287 16.7584V25.2171H121.611L121.396 23.8802C120.834 24.3944 120.138 24.8058 119.335 25.0629C118.532 25.3457 117.488 25.4999 116.257 25.4999ZM117.114 23.3403C118.05 23.3403 118.88 23.186 119.576 22.8775C120.272 22.569 120.861 22.1576 121.289 21.6434V19.3295H116.953C116.016 19.3295 115.347 19.5094 114.945 19.8437C114.544 20.1779 114.33 20.7178 114.33 21.412C114.33 22.1062 114.571 22.5947 115.052 22.8775C115.534 23.186 116.23 23.3403 117.114 23.3403Z"
    fill="currentColor"/>
  <path
    d="M126.135 25.2171L131.354 18.5324L126.322 12.0534H129.695L133.041 16.4499L136.387 12.0534H139.759L134.807 18.5324L140 25.2171H136.601L133.068 20.6407L129.534 25.2171H126.135Z"
    fill="currentColor"/>
</svg>
